<svg width="100" height="100" viewBox="0 0 100 100" fill="none" xmlns="http://www.w3.org/2000/svg">
<g clip-path="url(#clip0_32_2)">
<path fill-rule="evenodd" clip-rule="evenodd" d="M43.75 8.33334C38.1024 8.33382 32.5369 9.68486 27.5177 12.2737C22.4985 14.8626 18.1712 18.6142 14.8968 23.2156C11.6224 27.8171 9.49583 33.1348 8.69458 38.7252C7.89332 44.3156 8.44058 50.0166 10.2907 55.3524C12.1408 60.6883 15.2402 65.5044 19.3301 69.3989C23.4201 73.2933 28.3821 76.1532 33.8021 77.74C39.2221 79.3268 44.943 79.5944 50.4875 78.5205C56.032 77.4466 61.2393 75.0624 65.675 71.5667L80.8916 86.7833C81.6775 87.5423 82.73 87.9623 83.8225 87.9528C84.9149 87.9433 85.96 87.5051 86.7325 86.7326C87.5051 85.9601 87.9433 84.915 87.9528 83.8225C87.9623 82.73 87.5423 81.6775 86.7833 80.8917L71.5666 65.675C75.6833 60.4526 78.2465 54.1767 78.9629 47.5655C79.6793 40.9544 78.5199 34.2751 75.6176 28.2921C72.7152 22.309 68.187 17.264 62.5512 13.7343C56.9154 10.2046 50.3998 8.3329 43.75 8.33334ZM16.6666 43.75C16.6666 36.5671 19.52 29.6783 24.5991 24.5992C29.6783 19.5201 36.567 16.6667 43.75 16.6667C50.9329 16.6667 57.8217 19.5201 62.9008 24.5992C67.9799 29.6783 70.8333 36.5671 70.8333 43.75C70.8333 50.933 67.9799 57.8217 62.9008 62.9008C57.8217 67.9799 50.9329 70.8333 43.75 70.8333C36.567 70.8333 29.6783 67.9799 24.5991 62.9008C19.52 57.8217 16.6666 50.933 16.6666 43.75Z" fill="url(#paint0_linear_32_2)"/>
</g>
<defs>
<linearGradient id="paint0_linear_32_2" x1="53.716" y1="26.564" x2="53.716" y2="69.3503" gradientUnits="userSpaceOnUse">
<stop stop-color="#FFC53D"/>
<stop offset="1" stop-color="#F76B15"/>
</linearGradient>
<clipPath id="clip0_32_2">
<rect width="100" height="100" fill="white"/>
</clipPath>
</defs>
</svg>
